{"title":"FakeTaxi E68 Lana 1080p","uid":9116179,"size":1330072044,"categoryP":"porn","categoryS":"movie_clips","magnet":"?xt=urn:btih:e9ee8257f26f88ece56ce6d804a4512b59f63174&amp;dn=FakeTaxi+E68+Lana+1080p&amp;tr=udp%3A%2F%2Ftracker.openbittorrent.com%3A80&amp;tr=udp%3A%2F%2Fopen.demonii.com%3A1337&amp;tr=udp%3A%2F%2Ftracker.coppersurfer.tk%3A6969&amp;tr=udp%3A%2F%2Fexodus.desync.com%3A6969","seeders":0,"leechers":1,"uploader":null,"files":2,"time":1383015623,"description":" &lt;a href=&quot;http://s7.postimg.org/julvtwhvf/526ea7d1ca165.jpg&quot; rel=&quot;nofollow&quot; target=&quot;_NEW&quot;&gt;http://s7.postimg.org/julvtwhvf/526ea7d1ca165.jpg&lt;/a&gt;\n\nThis was a simple case of misunderstanding, but either way you must pay. So with no extra money to take her to the correct place, it was simple suck my cock or walk. After some thinking it was clear... \n\nFormat : MPEG-4\nFormat profile : QuickTime\nCodec ID : qt\nFile size : 1.24 GiB\nDuration : 27mn 31s\nOverall bit rate : 6 441 Kbps\nEncoded date : UTC 2013-10-18 17:34:46\nTagged date : UTC 2013-10-18 21:33:32\nWriting library : Apple QuickTime\nMedia/UUID : 10202B3C-BC7C-4393-9952-24512B414585\n\nVideo\nID : 1\nFormat : AVC\nFormat/Info : Advanced Video Codec\nFormat profile : &lt;a class=&quot;__cf_email__&quot; href=&quot;/cdn-cgi/l/email-protection&quot; data-cfemail=&quot;1558747c7b5559213b25&quot;&gt;[email&amp;#160;protected]&lt;/a&gt;&lt;script cf-hash='f9e31' type=&quot;text/javascript&quot;&gt;\n/* &lt;![CDATA[ */!function(){try{var t=&quot;currentScript&quot;in document?document.currentScript:function(){for(var t=document.getElementsByTagName(&quot;script&quot;),e=t.length;e--;)if(t[e].getAttribute(&quot;cf-hash&quot;))return t[e]}();if(t&amp;&amp;t.previousSibling){var e,r,n,i,c=t.previousSibling,a=c.getAttribute(&quot;data-cfemail&quot;);if(a){for(e=&quot;&quot;,r=parseInt(a.substr(0,2),16),n=2;a.length-n;n+=2)i=parseInt(a.substr(n,2),16)^r,e+=String.fromCharCode(i);e=document.createTextNode(e),c.parentNode.replaceChild(e,c)}}}catch(u){}}();/* ]]&gt; */&lt;/script&gt;\nFormat settings, CABAC : No\nFormat settings, ReFrames : 2 frames\nFormat settings, GOP : M=2, N=50\nCodec ID : avc1\nCodec ID/Info : Advanced Video Coding\nDuration : 27mn 31s\nBit rate : 6 307 Kbps\nWidth : 1 888 pixels\nOriginal width : 1 920 pixels\nHeight : 1 062 pixels\nOriginal height : 1 080 pixels\nDisplay aspect ratio : 16:9\nFrame rate mode : Constant\nFrame rate : 25.000 fps\nColor space : YUV\nChroma subsampling : 4:2:0\nBit depth : 8 bits\nScan type : Progressive\nBits/(Pixel*Frame) : 0.126\nStream size : 1.21 GiB (98%)\nLanguage : English\nEncoded date : UTC 2013-10-18 21:32:53\nTagged date : UTC 2013-10-18 21:33:32\nColor primaries : BT.709\nTransfer characteristics : BT.709\nMatrix coefficients : BT.709\n\nAudio\nID : 2\nFormat : AAC\nFormat/Info : Advanced Audio Codec\nFormat profile : LC\nCodec ID : 40\nDuration : 27mn 31s\nSource duration : 27mn 31s\nBit rate mode : Constant\nBit rate : 128 Kbps\nChannel(s) : 2 channels\nChannel positions : Front: L R\nSampling rate : 44.1 KHz\nCompression mode : Lossy\nStream size : 25.6 MiB (2%)\nSource stream size : 25.6 MiB (2%)\nLanguage : English\nEncoded date : UTC 2013-10-18 21:32:53\nTagged date : UTC 2013-10-18 21:33:32\n\nMenu\nID : 3\nDuration : 27mn 31s\nLanguage : English\nEncoded date : UTC 2013-10-18 21:33:32\nTagged date : UTC 2013-10-18 21:33:32\n","torrent":{"xt":"urn:btih:e9ee8257f26f88ece56ce6d804a4512b59f63174","amp;dn":"FakeTaxi+E68+Lana+1080p","amp;tr":["udp%3A%2F%2Ftracker.openbittorrent.com%3A80","udp%3A%2F%2Fopen.demonii.com%3A1337","udp%3A%2F%2Ftracker.coppersurfer.tk%3A6969","udp%3A%2F%2Fexodus.desync.com%3A6969"],"infoHash":"e9ee8257f26f88ece56ce6d804a4512b59f63174","infoHashBuffer":{"type":"Buffer","data":[233,238,130,87,242,111,136,236,229,108,230,216,4,164,81,43,89,246,49,116]},"announce":[],"urlList":[]}}